<?xml version="1.0" standalone="no"?>
<!DOCTYPE svg PUBLIC "-//W3C//DTD SVG 20010904//EN"
 "http://www.w3.org/TR/2001/REC-SVG-20010904/DTD/svg10.dtd">
<svg version="1.0" xmlns="http://www.w3.org/2000/svg"
 width="1280.000000pt" height="1280.000000pt" viewBox="0 0 1280.000000 1280.000000"
 preserveAspectRatio="xMidYMid meet">
<metadata>
Created by potrace 1.14, written by Peter Selinger 2001-2017
</metadata>
<g transform="translate(0.000000,1280.000000) scale(0.100000,-0.100000)"
fill="#000000" stroke="none">
<path d="M7675 11482 c-3 -4 -19 -6 -113 -17 -65 -7 -82 -14 -82 -31 0 -8 -6
-11 -15 -8 -8 4 -17 -1 -21 -10 -3 -9 -10 -13 -15 -10 -5 3 -7 11 -4 17 3 7
-1 2 -10 -10 -14 -18 -21 -20 -41 -13 -17 7 -23 6 -21 -2 1 -7 -8 -17 -21 -23
-12 -5 -20 -15 -17 -22 2 -7 1 -12 -3 -12 -25 4 -41 -4 -47 -21 -4 -11 -10
-18 -15 -15 -14 8 -61 -25 -53 -38 3 -5 1 -7 -5 -3 -5 3 -13 0 -15 -6 -4 -10
-6 -10 -6 0 -1 6 -5 12 -11 12 -5 0 -6 -7 -3 -17 4 -10 2 -14 -4 -10 -6 4 -13
2 -15 -3 -2 -6 -19 -12 -39 -14 -20 -2 -40 -6 -45 -9 -6 -3 -16 -2 -24 3 -8 5
-22 5 -32 -1 -12 -7 -18 -6 -18 1 0 7 -6 8 -18 1 -10 -6 -24 -6 -32 -1 -8 5
-21 5 -29 0 -8 -4 -27 -3 -43 2 -15 6 -35 8 -43 4 -8 -3 -17 0 -21 6 -5 7 -2
8 6 3 8 -5 11 -4 6 3 -4 6 -12 9 -19 7 -29 -10 -77 -12 -77 -4 0 5 -3 8 -7 8
-22 -4 -43 2 -39 10 7 10 -19 9 -29 -1 -4 -3 -19 -3 -33 1 -15 4 -39 4 -54 0
-17 -4 -30 -3 -34 3 -4 6 -10 5 -15 -3 -6 -10 -9 -10 -9 -2 0 19 -30 3 -30
-16 0 -10 -3 -12 -8 -4 -9 15 -64 5 -55 -11 4 -6 0 -5 -9 2 -12 10 -17 10 -20
1 -2 -6 -18 -12 -34 -13 -26 -1 -30 -5 -28 -24 2 -18 0 -21 -11 -12 -10 8 -15
8 -21 -1 -5 -8 -3 -9 7 -4 12 8 12 6 0 -8 -7 -9 -20 -17 -28 -17 -13 0 -13 -3
-3 -15 11 -13 10 -14 -5 -8 -14 5 -17 3 -12 -10 4 -12 1 -15 -16 -11 -11 2
-24 -1 -28 -7 -4 -8 -15 -3 -30 12 -15 15 -21 17 -16 6 8 -22 -2 -22 -20 1 -8
9 -11 11 -8 3 5 -8 -3 -6 -21 5 -15 11 -25 13 -21 7 6 -9 3 -11 -7 -7 -9 3
-16 9 -16 13 0 4 -13 9 -30 10 -70 5 -80 6 -80 15 0 5 -7 3 -15 -4 -11 -9 -15
-9 -15 -1 0 8 -5 9 -19 2 -10 -6 -21 -7 -25 -4 -8 9 -46 11 -46 3 0 -3 -9 -6
-20 -6 -11 0 -20 4 -20 9 0 5 -7 4 -15 -3 -8 -7 -15 -8 -15 -2 0 9 -51 -4 -77
-21 -6 -4 -14 -3 -17 1 -8 13 -59 2 -69 -14 -5 -10 -14 -11 -32 -4 -16 6 -27
6 -31 -1 -4 -6 -11 -6 -20 2 -11 9 -14 8 -14 -5 0 -9 -5 -16 -11 -16 -5 0 -8
4 -4 9 3 5 0 13 -6 17 -7 4 -10 3 -7 -2 7 -10 -11 -29 -29 -30 -30 -2 -34 -5
-28 -14 4 -7 -2 -7 -19 0 -21 8 -24 7 -19 -8 6 -15 5 -16 -12 -2 -14 11 -17
11 -11 1 7 -10 4 -12 -13 -6 -17 5 -20 3 -14 -12 6 -15 4 -16 -8 -6 -13 10
-19 9 -36 -7 -12 -10 -25 -16 -29 -12 -5 4 -3 -1 4 -10 12 -14 10 -16 -10 -12
-13 2 -17 1 -9 -2 16 -8 -57 -36 -75 -30 -7 3 -10 -6 -8 -20 1 -13 -2 -24 -7
-24 -5 0 -9 5 -9 11 0 6 -13 -3 -29 -20 -16 -17 -34 -31 -40 -31 -7 0 -14 -7
-17 -15 -4 -8 -10 -12 -15 -9 -8 5 -13 -9 -10 -28 2 -12 -24 -9 -39 5 -8 6 -6
2 5 -11 15 -18 16 -22 3 -17 -11 4 -16 1 -15 -11 1 -9 -5 -19 -13 -21 -13 -4
-13 -3 0 7 13 10 13 11 0 7 -8 -2 -15 -12 -15 -23 0 -11 -8 -20 -20 -22 -11
-2 -24 -9 -30 -14 -7 -8 -4 -9 10 -4 20 7 20 7 0 -12 -11 -11 -22 -19 -25 -18
-3 0 -17 -10 -30 -23 -14 -13 -19 -21 -12 -17 6 4 12 2 12 -4 0 -6 -7 -13 -15
-16 -14 -6 -13 -8 1 -19 14 -9 14 -14 4 -20 -9 -5 -11 -4 -6 3 4 7 2 12 -3 12
-6 0 -11 -7 -11 -15 0 -7 -8 -18 -17 -24 -10 -5 -15 -13 -11 -17 5 -4 3 -13
-3 -21 -9 -10 -15 -10 -25 -2 -10 8 -12 6 -9 -10 2 -12 0 -19 -4 -16 -5 2 -15
-3 -22 -12 -10 -12 -10 -14 -1 -9 18 11 14 -5 -5 -19 -14 -11 -15 -16 -5 -28
11 -13 10 -15 -10 -11 -13 2 -17 2 -10 -2 6 -3 9 -10 6 -15 -4 -6 -11 -6 -19
1 -11 9 -13 6 -11 -13 3 -21 -1 -24 -21 -22 -13 1 -26 -2 -30 -8 -3 -6 -1 -7
5 -3 6 3 13 2 17 -4 3 -5 1 -11 -4 -11 -6 -1 -15 -2 -21 -3 -5 0 -15 -8 -22
-16 -11 -12 -11 -12 5 -1 9 8 17 9 17 3 0 -14 -28 -23 -35 -12 -4 6 -12 10
-18 9 -9 0 -9 -2 1 -6 6 -2 12 -9 12 -14 0 -4 -7 -5 -17 -2 -11 4 -14 3 -9 -5
4 -7 2 -10 -7 -7 -7 3 -26 -6 -41 -20 -15 -14 -37 -27 -49 -28 -12 -1 -27 -9
-33 -17 -10 -12 -15 -12 -27 -2 -13 11 -15 10 -10 -10 4 -18 2 -20 -6 -8 -8
12 -11 12 -17 -5 -7 -18 -8 -18 -15 1 -7 17 -8 17 -8 1 -1 -10 -5 -16 -10 -12
-6 3 -13 0 -18 -7 -4 -7 -15 -13 -23 -13 -9 0 -14 -8 -13 -20 1 -11 0 -14 -3
-7 -3 6 -12 12 -20 12 -9 0 -12 5 -8 12 4 7 3 8 -5 4 -6 -4 -8 -12 -5 -18 5
-7 1 -9 -9 -5 -9 3 -18 0 -21 -9 -3 -8 -10 -14 -16 -14 -6 0 -8 6 -4 13 5 8 3
8 -9 -2 -9 -7 -14 -17 -11 -22 3 -5 -4 -9 -15 -9 -12 0 -21 -6 -21 -12 0 -10
-2 -10 -9 0 -7 11 -9 11 -14 -2 -4 -9 -18 -16 -33 -16 -20 0 -25 -4 -20 -16 5
-13 2 -15 -14 -11 -13 3 -18 1 -13 -6 4 -6 0 -8 -10 -4 -12 4 -14 2 -10 -10 4
-11 3 -14 -6 -9 -7 5 -10 2 -9 -6 2 -7 -7 -14 -20 -16 -12 -2 -20 -8 -17 -13
4 -5 0 -9 -8 -9 -8 0 -23 -8 -34 -17 -10 -10 -13 -14 -6 -9 8 5 16 6 20 2 3
-3 1 -6 -6 -6 -7 0 -10 -4 -7 -9 4 -5 -5 -8 -20 -6 -15 1 -23 -2 -21 -9 5 -12
-18 -38 -29 -34 -4 2 -8 -5 -10 -15 -4 -26 -24 -48 -38 -40 -6 3 -6 0 2 -8 15
-17 16 -33 0 -23 -8 5 -9 2 -5 -9 6 -16 -9 -23 -37 -18 -5 1 -3 -6 5 -15 8
-10 9 -15 3 -11 -6 4 -20 -3 -30 -16 -16 -18 -16 -19 -1 -8 23 18 22 9 -3 -19
-11 -12 -17 -26 -15 -31 3 -4 1 -10 -5 -14 -6 -4 -7 -12 -3 -18 4 -7 -1 -6
-10 2 -15 12 -17 12 -11 -3 3 -9 1 -16 -4 -16 -6 0 -9 -9 -7 -20 2 -11 0 -18
-5 -15 -11 7 -24 -31 -15 -45 3 -5 1 -10 -5 -10 -6 0 -8 -11 -6 -25 3 -14 1
-23 -4 -20 -5 3 -9 -3 -10 -12 -2 -37 -9 -98 -11 -98 -2 0 -9 -42 -13 -85 -3
-33 -7 -47 -25 -95 -5 -11 -7 -28 -5 -38 1 -9 -2 -15 -7 -11 -5 3 -9 -2 -9
-10 0 -9 -4 -16 -10 -16 -5 0 -9 -3 -9 -7 3 -20 -2 -34 -10 -28 -6 3 -8 -4 -6
-15 2 -11 0 -18 -4 -15 -5 2 -21 -7 -37 -21 -16 -15 -23 -23 -17 -20 9 5 11 2
7 -9 -4 -9 -13 -14 -22 -10 -13 5 -13 3 -1 -12 9 -11 10 -14 2 -9 -8 4 -13 2
-13 -4 0 -6 -5 -8 -12 -4 -8 5 -7 0 2 -11 8 -10 10 -16 4 -12 -6 4 -19 -2 -29
-13 -10 -12 -13 -20 -7 -20 7 0 12 5 12 11 0 5 5 7 11 3 7 -4 1 -13 -15 -23
-14 -10 -23 -21 -19 -25 5 -4 0 -14 -11 -21 -10 -8 -15 -18 -11 -24 3 -6 1
-11 -6 -11 -6 0 -9 -8 -6 -20 3 -11 2 -18 -3 -15 -13 8 -19 -22 -7 -35 9 -10
9 -11 0 -6 -12 6 -29 -46 -19 -62 2 -4 1 -14 -4 -22 -4 -7 -5 -23 0 -35 4 -11
4 -28 -1 -37 -6 -11 -5 -19 2 -24 8 -4 7 -9 -2 -16 -8 -6 -10 -11 -4 -14 6 -2
10 -19 9 -38 -3 -50 7 -87 20 -79 8 4 8 3 0 -6 -12 -13 4 -81 19 -81 5 0 5 -4
2 -10 -3 -5 -1 -10 5 -10 6 0 8 -4 5 -10 -3 -5 -1 -10 4 -10 6 0 11 -7 11 -15
0 -9 7 -18 16 -22 8 -3 20 -17 25 -30 5 -13 13 -22 18 -18 5 3 12 -4 16 -15 3
-11 10 -20 16 -20 15 0 42 -73 44 -120 1 -25 -4 -54 -12 -65 -15 -23 -18 -47
-2 -25 9 12 9 11 3 -5 -4 -11 -8 -30 -8 -42 -1 -13 -6 -23 -13 -23 -7 0 -10
-7 -6 -15 3 -10 0 -15 -8 -13 -8 2 -15 -7 -17 -20 -2 -14 -8 -20 -15 -15 -7 4
-5 -2 3 -12 8 -10 10 -16 3 -12 -12 7 -40 -29 -35 -45 1 -5 -3 -8 -9 -8 -6 0
-9 -7 -5 -15 3 -8 1 -15 -4 -15 -6 0 -10 -9 -10 -19 0 -11 -4 -22 -9 -26 -6
-3 -10 -13 -11 -23 -2 -51 -6 -72 -11 -72 -3 0 -6 -7 -6 -15 0 -8 3 -15 7 -15
8 0 5 -74 -4 -89 -4 -6 -3 -11 2 -11 5 0 8 -10 7 -22 -1 -13 2 -29 8 -35 5 -7
7 -13 3 -13 -4 0 0 -13 9 -30 9 -16 12 -30 8 -30 -5 0 -3 -4 2 -8 6 -4 18 -19
28 -34 10 -16 25 -28 35 -28 11 0 13 -3 6 -8 -9 -5 -8 -11 2 -20 8 -7 14 -10
14 -7 0 3 11 -5 25 -17 28 -26 49 -84 34 -94 -5 -3 -6 -12 0 -21 5 -9 5 -29 1
-44 -5 -16 -4 -31 2 -37 7 -7 3 -14 -13 -23 -18 -9 -24 -9 -27 0 -3 9 -7 9
-18 0 -11 -9 -14 -9 -14 1 0 10 -3 10 -15 0 -8 -6 -19 -9 -24 -6 -5 4 -13 1
-17 -5 -5 -8 -3 -9 7 -4 8 4 4 -2 -8 -14 -25 -24 -30 -37 -10 -25 8 6 8 3 -1
-9 -8 -9 -11 -21 -8 -26 4 -5 3 -12 -1 -14 -11 -7 -4 -322 7 -322 1 0 3 -18 5
-40 5 -75 4 -72 15 -55 8 13 10 12 10 -3 0 -22 45 -90 91 -136 17 -16 41 -102
45 -156 1 -16 5 -38 9 -47 4 -9 4 -22 0 -28 -3 -5 -1 -10 5 -10 6 0 9 -4 5 -9
-5 -9 6 -71 31 -163 3 -13 6 -33 5 -45 0 -12 4 -25 9 -28 5 -3 7 -12 3 -20 -3
-8 -1 -15 5 -15 6 0 9 -11 7 -25 -1 -14 2 -25 6 -25 5 0 8 -3 7 -7 -1 -5 1
-25 5 -46 6 -25 12 -35 20 -30 8 5 8 2 -1 -9 -10 -13 -10 -17 3 -22 8 -3 15
-10 15 -16 0 -6 -5 -8 -11 -5 -7 5 -7 2 0 -11 48 -84 67 -178 47 -226 -4 -9
-4 -22 0 -29 4 -8 3 -9 -4 -5 -7 4 -12 1 -12 -8 0 -9 -6 -16 -12 -16 -10 0 -9
-3 1 -9 11 -7 9 -10 -8 -16 -17 -5 -19 -10 -11 -20 8 -9 8 -14 -1 -17 -6 -2
-17 -18 -25 -36 -8 -19 -9 -30 -3 -26 6 3 3 -5 -6 -20 -10 -14 -22 -26 -29
-26 -7 0 -6 -4 2 -9 11 -6 10 -10 -3 -15 -9 -3 -15 -13 -12 -20 3 -8 -2 -17
-11 -21 -9 -3 -12 -9 -7 -13 11 -8 15 -82 5 -82 -4 0 -7 -7 -7 -15 0 -8 5 -15
10 -15 5 0 4 -7 -3 -15 -7 -8 -8 -15 -3 -15 8 0 12 -15 15 -57 1 -7 5 -13 10
-13 5 0 7 -4 3 -9 -3 -5 -1 -12 5 -16 6 -4 8 -11 5 -16 -4 -5 -2 -9 3 -9 6 0
8 -8 5 -19 -2 -10 2 -25 11 -33 8 -9 12 -18 9 -22 -4 -3 -1 -6 6 -6 7 0 9 -4
6 -10 -3 -5 -2 -10 3 -10 5 0 15 -13 22 -30 7 -16 19 -30 27 -30 8 0 12 -4 8
-9 -3 -6 12 -27 33 -48 21 -21 49 -57 62 -81 13 -23 28 -42 32 -42 5 0 7 -3 5
-8 -6 -10 30 -42 39 -34 4 4 4 2 1 -4 -7 -11 31 -62 91 -120 17 -18 32 -37 32
-44 0 -6 5 -8 10 -5 6 3 10 -1 10 -10 0 -12 5 -15 17 -11 10 4 15 4 11 1 -3
-4 11 -23 33 -42 21 -19 39 -42 39 -49 0 -13 13 -19 33 -15 5 1 6 -3 2 -9 -8
-13 14 -42 25 -35 4 3 11 -2 14 -11 3 -8 11 -12 17 -8 8 4 9 3 5 -4 -4 -7 -2
-12 4 -12 6 0 8 -5 5 -10 -3 -6 1 -10 10 -10 10 0 13 -5 9 -12 -4 -6 -3 -8 3
-5 6 4 22 -7 37 -24 15 -16 38 -34 51 -39 14 -5 25 -17 25 -26 0 -10 5 -14 14
-11 9 4 17 -1 21 -12 3 -9 21 -25 40 -34 19 -9 35 -21 35 -27 0 -5 6 -10 13
-10 6 0 32 -18 57 -40 25 -22 48 -40 53 -40 4 0 15 -8 25 -18 11 -11 41 -34
68 -52 27 -19 51 -37 54 -40 9 -12 191 -130 201 -130 5 0 9 -4 9 -10 0 -5 6
-10 14 -10 8 0 21 -8 28 -19 7 -10 24 -22 38 -26 14 -4 39 -18 56 -31 17 -13
36 -24 42 -24 7 0 12 -4 12 -9 0 -9 48 -26 63 -23 4 1 7 -3 7 -8 0 -6 16 -18
35 -27 19 -9 35 -21 35 -25 0 -5 4 -7 9 -4 4 3 17 -1 27 -9 10 -8 27 -15 36
-15 9 0 18 -4 20 -8 3 -9 152 -81 210 -102 21 -8 34 -18 31 -24 -3 -6 -3 -8 2
-4 4 4 21 0 37 -8 21 -11 28 -12 22 -3 -4 7 6 4 22 -8 27 -19 89 -39 107 -35
5 2 6 -2 3 -7 -4 -5 8 -13 26 -16 18 -4 51 -16 72 -26 22 -11 48 -19 58 -19
10 0 18 -5 18 -11 0 -5 5 -7 10 -4 6 3 10 -1 10 -10 0 -8 -11 -21 -25 -27 -14
-6 -25 -17 -25 -25 0 -7 -5 -13 -11 -13 -5 0 -7 4 -4 10 3 5 4 10 1 10 -3 0
-10 -9 -16 -20 -9 -16 -8 -19 7 -14 17 5 17 5 0 -6 -9 -6 -22 -8 -27 -5 -6 3
-10 1 -10 -4 0 -6 -11 -11 -24 -11 -14 0 -28 -5 -32 -12 -4 -6 -3 -8 3 -5 5 3
10 0 10 -7 0 -8 -9 -11 -24 -8 -19 4 -22 1 -16 -14 6 -16 4 -17 -9 -7 -19 16
-32 4 -15 -15 11 -13 9 -14 -13 -2 -24 13 -24 12 -10 -5 8 -11 10 -16 3 -11
-19 11 -109 -54 -92 -65 8 -5 11 -9 7 -10 -5 -1 -12 -3 -18 -4 -5 -1 -14 -3
-19 -4 -6 0 -8 -10 -6 -22 3 -15 0 -19 -10 -15 -8 3 -15 1 -15 -4 0 -6 -5 -10
-11 -10 -5 0 -7 5 -3 12 4 7 3 8 -5 4 -9 -6 -9 -11 -1 -21 7 -8 7 -15 1 -19
-5 -3 -12 0 -14 6 -4 10 -6 10 -6 0 -1 -7 -5 -10 -11 -7 -6 3 -7 -1 -4 -9 3
-9 11 -16 17 -16 6 0 7 -3 4 -6 -4 -4 -14 -1 -24 7 -14 12 -16 12 -8 0 6 -11
4 -13 -10 -7 -16 6 -16 4 -4 -11 12 -15 12 -16 -3 -11 -17 7 -53 -24 -41 -35
3 -4 1 -7 -6 -7 -7 0 -9 -5 -5 -12 5 -8 2 -9 -11 -4 -15 5 -16 4 -5 -9 11 -13
10 -14 -4 -9 -11 4 -16 1 -16 -11 0 -9 -9 -19 -20 -22 -19 -5 -20 -6 -3 -19
17 -13 17 -14 0 -8 -12 4 -17 2 -15 -7 2 -8 -3 -13 -9 -11 -7 1 -13 -3 -13 -9
0 -5 -4 -8 -9 -5 -5 3 -11 -1 -15 -9 -6 -18 46 -75 69 -75 8 0 15 -5 15 -11 0
-5 4 -8 9 -4 5 3 15 -1 23 -8 7 -8 19 -12 26 -9 8 2 10 -3 6 -15 -5 -15 -4
-15 5 -3 5 8 13 11 17 8 4 -4 19 2 35 13 25 18 29 18 37 3 5 -9 24 -17 43 -19
18 -2 35 -8 37 -14 2 -6 9 -8 15 -4 8 4 7 1 -1 -9 -10 -13 -8 -18 12 -32 17
-11 27 -12 32 -5 3 6 9 7 13 3 9 -14 49 -34 65 -34 8 0 20 -8 25 -17 8 -14 10
-15 11 -3 0 10 5 7 15 -7 9 -12 21 -20 29 -17 7 3 18 -5 25 -18 6 -13 9 -15 7
-6 -3 10 0 20 7 24 7 4 9 4 5 -1 -4 -4 0 -14 10 -22 9 -8 11 -11 3 -7 -10 5
-12 3 -7 -5 6 -9 11 -9 22 0 11 9 15 8 20 -5 3 -9 15 -16 25 -16 11 0 22 -6
25 -14 3 -8 13 -12 26 -8 14 3 19 1 14 -6 -4 -7 -2 -12 4 -12 6 0 8 -5 4 -12
-4 -7 -3 -8 5 -4 6 4 8 13 4 19 -3 7 2 5 13 -3 33 -26 63 -40 84 -40 14 0 19
-4 14 -12 -5 -8 0 -7 11 2 11 9 16 10 11 3 -4 -8 -1 -13 9 -13 9 0 14 -4 11
-9 -3 -5 1 -12 10 -15 10 -4 13 -2 9 7 -4 6 0 4 8 -6 11 -14 16 -15 20 -5 4
11 6 11 6 0 1 -7 5 -10 11 -7 5 3 10 1 10 -5 0 -6 4 -9 9 -6 5 3 11 -1 15 -9
3 -8 12 -12 21 -9 8 3 12 11 8 17 -3 6 -1 7 5 3 6 -4 9 -12 6 -19 -3 -8 4 -13
17 -14 12 -1 25 -7 29 -14 5 -6 13 -8 20 -4 9 6 11 4 5 -5 -6 -10 -1 -12 19
-8 19 4 24 2 16 -7 -7 -8 -2 -10 19 -7 16 2 32 -1 36 -9 6 -8 4 -10 -5 -4 -8
5 -11 4 -6 -3 3 -6 15 -9 26 -7 10 2 24 -3 31 -11 6 -8 17 -14 23 -14 6 0 4 5
-4 10 -9 6 -10 10 -3 10 6 0 18 -7 26 -15 8 -8 17 -11 21 -8 3 4 6 1 6 -5 0
-7 5 -12 11 -12 5 0 7 6 4 13 -4 6 0 4 9 -7 10 -12 23 -17 36 -13 17 4 19 3
10 -8 -8 -10 -4 -12 20 -10 16 1 30 -2 30 -7 0 -5 8 -8 18 -6 9 2 16 -2 15 -8
-1 -7 6 -10 18 -7 11 3 29 -2 41 -13 12 -11 18 -13 14 -7 -5 9 -2 11 8 7 9 -3
16 -11 16 -16 0 -6 6 -6 14 1 11 9 16 9 22 0 5 -8 3 -10 -7 -4 -8 5 -11 4 -6
-1 5 -5 16 -9 25 -9 9 0 16 -5 15 -12 -2 -7 4 -10 12 -7 9 4 23 0 32 -7 14
-12 16 -12 8 1 -5 9 1 7 15 -5 13 -11 20 -14 16 -8 -5 9 -2 11 8 7 9 -3 14 -9
11 -13 -2 -4 13 -7 35 -7 21 1 37 -1 34 -3 -2 -2 5 -16 15 -30 24 -33 26 -42
10 -52 -14 -8 50 -39 82 -39 11 0 19 -5 19 -11 0 -5 4 -8 9 -5 5 4 22 1 38 -5
15 -6 42 -13 58 -15 17 -3 41 -9 55 -14 22 -8 67 -19 109 -26 7 -1 34 -7 60
-13 65 -14 101 -21 141 -27 19 -3 69 -12 110 -20 96 -20 177 -33 265 -44 39
-5 88 -11 110 -14 22 -3 65 -8 95 -11 30 -3 69 -7 85 -10 17 -2 65 -4 108 -6
42 -1 77 -4 77 -8 0 -3 100 -6 222 -5 178 1 237 4 293 19 39 9 77 23 85 31 21
18 23 64 6 105 -8 19 -14 36 -14 39 -1 12 -50 159 -63 185 -10 23 -78 201 -86
228 -11 34 -139 275 -153 287 -3 3 -21 30 -40 60 -33 52 -58 85 -88 116 -7 8
-10 14 -5 14 4 0 0 5 -9 11 -10 5 -18 16 -18 23 0 8 -7 16 -15 20 -8 3 -15 12
-15 21 0 8 -7 15 -15 15 -8 0 -15 3 -15 8 0 4 -18 27 -40 51 -22 24 -40 47
-40 52 0 5 -4 9 -8 9 -5 0 -40 30 -78 66 -38 36 -95 87 -126 113 -32 25 -58
51 -58 58 0 6 15 14 33 18 17 4 61 15 97 26 36 10 74 20 85 22 23 5 45 13 100
37 22 10 57 24 78 31 20 7 37 17 37 21 0 4 6 8 14 8 12 0 44 14 118 51 10 5
22 9 27 9 5 0 22 5 38 11 15 6 29 10 30 10 2 0 19 8 38 19 20 11 42 20 50 20
8 0 15 5 15 10 0 6 4 10 9 10 24 0 207 95 273 141 14 11 29 19 34 19 4 0 22
11 40 25 18 14 36 25 39 25 3 0 21 11 39 25 18 14 36 25 40 25 5 0 131 94 146
110 3 3 30 26 60 51 60 51 140 128 140 137 0 2 10 14 23 26 22 21 28 28 107
132 81 108 92 116 133 109 20 -4 37 -11 37 -16 0 -11 239 -9 246 3 3 4 13 8
22 8 10 0 35 9 57 20 22 11 45 20 52 20 7 0 13 4 13 8 0 5 11 14 24 20 40 18
111 82 156 142 14 18 37 49 53 68 15 19 27 38 27 41 0 19 63 72 115 97 33 15
89 45 124 66 34 21 65 38 67 38 3 0 10 5 17 10 27 22 117 80 117 75 0 -3 13 8
30 25 16 16 34 30 40 30 5 0 21 9 34 21 13 12 27 21 30 20 3 0 20 13 38 29 18
17 38 30 44 30 7 0 14 3 16 8 2 4 17 18 33 30 83 64 147 139 185 217 96 198
113 338 65 525 -35 137 -122 260 -214 303 -25 11 -49 26 -53 31 -4 6 -8 8 -8
4 0 -3 -24 0 -52 8 -29 7 -75 14 -101 14 -36 0 -49 4 -54 18 -4 9 -19 29 -35
44 -34 31 -36 49 -5 44 12 -3 32 -5 45 -5 13 -1 21 -5 18 -10 -3 -5 1 -11 9
-15 8 -3 15 -17 15 -31 0 -35 13 -31 38 13 31 56 34 89 11 162 -21 67 -23 138
-4 177 5 12 28 29 50 38 38 15 42 14 88 -8 28 -14 50 -20 54 -14 3 5 1 12 -4
16 -11 8 -66 124 -81 171 -34 111 -31 302 8 480 10 43 16 69 26 118 10 51 65
255 70 263 3 5 7 19 10 32 2 12 15 63 30 112 92 323 107 406 108 610 0 259
-59 484 -173 659 -14 23 -32 47 -38 54 -7 7 -13 16 -13 20 0 6 -45 59 -98 117
-10 11 -29 36 -42 55 -13 19 -29 38 -35 42 -6 5 -6 8 0 8 7 0 7 3 0 8 -14 10
-54 68 -57 84 -2 7 -9 19 -15 26 -7 7 -13 22 -13 33 0 10 -4 19 -8 19 -5 0
-17 28 -27 63 -9 34 -24 85 -33 112 -9 28 -17 55 -18 60 -15 88 -130 380 -162
413 -6 8 -10 18 -7 23 4 5 2 9 -3 9 -5 0 -15 12 -23 28 -17 33 -50 83 -65 97
-5 5 -23 28 -39 50 -16 22 -39 50 -51 62 -12 12 -24 25 -25 30 -2 4 -32 34
-65 65 -34 31 -59 60 -56 63 3 3 -2 5 -11 5 -8 0 -19 9 -22 20 -4 11 -10 18
-14 15 -5 -2 -19 5 -32 16 -13 11 -36 28 -51 37 -16 9 -28 20 -28 24 0 4 -7 8
-15 8 -8 0 -15 5 -15 10 0 6 -6 10 -14 10 -8 0 -16 3 -18 8 -4 9 -65 52 -73
52 -4 0 -26 14 -50 30 -24 17 -48 30 -53 30 -6 0 -12 3 -14 8 -1 4 -43 27 -93
52 -63 31 -107 61 -145 100 -92 92 -232 197 -310 231 -16 8 -30 17 -30 21 0 5
-6 8 -14 8 -8 0 -31 9 -53 19 -43 22 -129 54 -188 71 -22 6 -47 14 -55 17 -8
3 -28 7 -43 9 -16 2 -36 8 -45 13 -18 9 -56 11 -317 15 -155 2 -191 5 -263 20
-53 11 -295 139 -322 169 -15 18 -54 46 -86 62 -33 17 -61 32 -64 35 -3 3 -14
7 -25 8 -11 2 -24 8 -29 13 -6 5 -20 9 -31 9 -12 0 -25 3 -29 7 -3 4 -12 8
-19 9 -40 6 -87 15 -119 23 -20 5 -39 6 -42 4 -2 -3 -11 -1 -18 3 -12 8 -295
14 -303 6z m-1911 -8704 c-3 -5 -9 -6 -14 -3 -5 3 -11 1 -15 -5 -3 -5 -11 -10
-18 -10 -6 0 -3 6 7 13 21 15 48 18 40 5z m-222 -200 c-7 -7 -12 -8 -12 -2 0
14 12 26 19 19 2 -3 -1 -11 -7 -17z m25 -260 c-3 -8 -6 -5 -6 6 -1 11 2 17 5
13 3 -3 4 -12 1 -19z m184 -65 c13 -17 13 -17 -6 -3 -11 8 -22 16 -24 17 -2 2
0 3 6 3 6 0 17 -8 24 -17z"/>
<path d="M5571 11134 c0 -11 3 -14 6 -6 3 7 2 16 -1 19 -3 4 -6 -2 -5 -13z"/>
<path d="M4773 10555 c0 -8 4 -12 9 -9 5 3 6 10 3 15 -9 13 -12 11 -12 -6z"/>
<path d="M4080 4227 c0 -2 15 -16 33 -33 l32 -29 -29 33 c-28 30 -36 37 -36
29z"/>
<path d="M930 3590 c0 -11 4 -20 9 -20 5 0 7 9 4 20 -3 11 -7 20 -9 20 -2 0
-4 -9 -4 -20z"/>
<path d="M930 3494 c0 -8 5 -12 10 -9 6 4 8 11 5 16 -9 14 -15 11 -15 -7z"/>
<path d="M933 3455 c0 -8 4 -12 9 -9 5 3 6 10 3 15 -9 13 -12 11 -12 -6z"/>
</g>
</svg>
